# xmcd
# 
# Track frame offsets:
#     150
#     21369
#     47360
#     76920
#     106297
#     136530
#     160125
#     210720
# 
# Disc length: 3174
# 
# Revision: 8
# Processed by: cddbd v1.5.2PL0 Copyright (c) Steve Scherf et al.
# Submitted via: fre:ac v1.0.27
# 
DISCID=580c6408
DTITLE=Karunesh - Secrets of Life
DYEAR=1995
DGENRE=New Age
TTITLE0=Call of the Tribes
TTITLE1=Inshallah
TTITLE2=Hidden Places
TTITLE3=Morning Glory
TTITLE4=Down Under
TTITLE5=A Journey To India
TTITLE6=Secrets Of Life
TTITLE7=Dusk (Inshallah Reprise)
EXTD=
EXTT0=
EXTT1=
EXTT2=
EXTT3=
EXTT4=
EXTT5=
EXTT6=
EXTT7=
PLAYORDER=
